999
"DXF R12 Output" (www.mydxf.blogspot.com)
 0 
SECTION
 2 
HEADER
 9 
$ACADVER
 1 
AC1009
 9 
$EXTMIN
 10 
 0 
 20 
 0 
 9 
$EXTMAX
 10 
 8.5 
 20 
 11 
 0 
ENDSEC
 0 
SECTION
 2 
ENTITIES
0
POLYLINE
8
Layer 1
62
7
70
0
10
0.000000
20
0.000000
66
1
0
VERTEX
8
Layer 1
10
0.051519
20
419.948481
70
0
0
VERTEX
8
Layer 1
10
809.948489
20
419.948481
70
0
0
VERTEX
8
Layer 1
10
809.948489
20
0.051511
70
0
0
VERTEX
8
Layer 1
10
0.051519
20
0.051511
70
0
0
VERTEX
8
Layer 1
10
0.051519
20
419.948481
70
0
0
SEQEND
8
Layer 1
0
POLYLINE
8
legs
62
7
70
0
10
0.000000
20
0.000000
66
1
0
VERTEX
8
legs
10
10.049943
20
199.950060
70
0
0
VERTEX
8
legs
10
69.950059
20
199.950060
70
0
0
VERTEX
8
legs
10
69.950059
20
40.049940
70
0
0
VERTEX
8
legs
10
10.049943
20
40.049940
70
0
0
VERTEX
8
legs
10
10.049943
20
199.950060
70
0
0
SEQEND
8
legs
0
POLYLINE
8
legs
62
7
70
0
10
0.000000
20
0.000000
66
1
0
VERTEX
8
legs
10
80.049942
20
199.950060
70
0
0
VERTEX
8
legs
10
139.950058
20
199.950060
70
0
0
VERTEX
8
legs
10
139.950058
20
40.049940
70
0
0
VERTEX
8
legs
10
80.049942
20
40.049940
70
0
0
VERTEX
8
legs
10
80.049942
20
199.950060
70
0
0
SEQEND
8
legs
0
POLYLINE
8
slanted legs
62
7
70
0
10
0.000000
20
0.000000
66
1
0
VERTEX
8
slanted legs
10
150.091608
20
199.950061
70
0
0
VERTEX
8
slanted legs
10
209.991724
20
199.950061
70
0
0
VERTEX
8
slanted legs
10
337.501221
20
40.049957
70
0
0
VERTEX
8
slanted legs
10
277.601105
20
40.049957
70
0
0
VERTEX
8
slanted legs
10
150.091608
20
199.950061
70
0
0
SEQEND
8
slanted legs
0
POLYLINE
8
slanted legs
62
7
70
0
10
0.000000
20
0.000000
66
1
0
VERTEX
8
slanted legs
10
220.091610
20
199.950061
70
0
0
VERTEX
8
slanted legs
10
279.991726
20
199.950061
70
0
0
VERTEX
8
slanted legs
10
407.501223
20
40.049957
70
0
0
VERTEX
8
slanted legs
10
347.601107
20
40.049957
70
0
0
VERTEX
8
slanted legs
10
220.091610
20
199.950061
70
0
0
SEQEND
8
slanted legs
0
POLYLINE
8
base
62
7
70
1
10
0.000000
20
0.000000
66
1
0
VERTEX
8
base
10
10.050075
20
409.949925
70
0
0
VERTEX
8
base
10
10.050075
20
209.849970
70
0
0
VERTEX
8
base
10
90.103172
20
209.849970
70
0
0
VERTEX
8
base
10
90.103172
20
279.820040
70
0
0
VERTEX
8
base
10
230.096940
20
279.820040
70
0
0
VERTEX
8
base
10
230.096940
20
209.849970
70
0
0
VERTEX
8
base
10
310.150030
20
209.849970
70
0
0
VERTEX
8
base
10
310.150030
20
409.949925
70
0
0
VERTEX
8
base
10
10.050075
20
409.949925
70
0
0
SEQEND
8
base
0
POLYLINE
8
base
62
7
70
0
10
0.000000
20
0.000000
66
1
0
VERTEX
8
base
10
90.050064
20
349.949936
70
0
0
VERTEX
8
base
10
110.100189
20
349.949936
70
0
0
VERTEX
8
base
10
110.100189
20
309.950062
70
0
0
VERTEX
8
base
10
90.050064
20
309.950062
70
0
0
VERTEX
8
base
10
90.050064
20
349.949936
70
0
0
SEQEND
8
base
0
POLYLINE
8
base
62
7
70
0
10
0.000000
20
0.000000
66
1
0
VERTEX
8
base
10
210.050060
20
349.949936
70
0
0
VERTEX
8
base
10
230.100185
20
349.949936
70
0
0
VERTEX
8
base
10
230.100185
20
309.950062
70
0
0
VERTEX
8
base
10
210.050060
20
309.950062
70
0
0
VERTEX
8
base
10
210.050060
20
349.949936
70
0
0
SEQEND
8
base
 0 
ENDSEC
 0 
EOF